<svg width="56" height="56" viewBox="0 0 56 56" fill="none" xmlns="http://www.w3.org/2000/svg">
<path d="M37.487 20.9879C38.1704 20.3044 38.1704 19.1964 37.487 18.513C36.8035 17.8296 35.6955 17.8296 35.0121 18.513L28 25.5251L20.9878 18.513C20.3044 17.8296 19.1964 17.8296 18.513 18.513C17.8295 19.1964 17.8295 20.3044 18.513 20.9879L25.5251 28L18.5129 35.0121C17.8295 35.6956 17.8295 36.8036 18.5129 37.487C19.1963 38.1704 20.3044 38.1704 20.9878 37.487L28 30.4749L35.0121 37.487C35.6955 38.1704 36.8036 38.1704 37.487 37.487C38.1704 36.8036 38.1704 35.6956 37.487 35.0122L30.4748 28L37.487 20.9879Z" fill="#CECECE"/>
</svg>
