<svg width="40" height="40" viewBox="0 0 40 40" fill="none" xmlns="http://www.w3.org/2000/svg">
<path fill-rule="evenodd" clip-rule="evenodd" d="M16.216 6.65443C18.036 3.99165 21.964 3.99166 23.7839 6.65443L24.5038 7.70768C29.0139 14.3064 32.8888 21.3174 36.0767 28.6469L36.227 28.9926C37.3505 31.5755 35.6532 34.5084 32.854 34.8212C24.3112 35.776 15.6887 35.776 7.14601 34.8212C4.34677 34.5084 2.6495 31.5755 3.77292 28.9926L3.92328 28.6469C7.11116 21.3174 10.9861 14.3064 15.4962 7.70767L16.216 6.65443ZM21.6667 15C21.6667 15.9205 20.9205 16.6667 20 16.6667C19.0795 16.6667 18.3334 15.9205 18.3334 15C18.3334 14.0796 19.0795 13.3334 20 13.3334C20.9205 13.3334 21.6667 14.0796 21.6667 15ZM20 19.5834C20.6904 19.5834 21.25 20.143 21.25 20.8334V29.1667C21.25 29.8571 20.6904 30.4167 20 30.4167C19.3097 30.4167 18.75 29.8571 18.75 29.1667V20.8334C18.75 20.143 19.3097 19.5834 20 19.5834Z" fill="#FF0000"/>
</svg>
